<?xml version="1.0" encoding="UTF-8"?>
<!DOCTYPE svg PUBLIC "-//W3C//DTD SVG 1.1//EN" "http://www.w3.org/Graphics/SVG/1.1/DTD/svg11.dtd">
<!-- Creator: CorelDRAW X8 -->
<svg xmlns="http://www.w3.org/2000/svg" xml:space="preserve" width="2.75591in" height="2.75586in" version="1.1" style="shape-rendering:geometricPrecision; text-rendering:geometricPrecision; image-rendering:optimizeQuality; fill-rule:evenodd; clip-rule:evenodd"
viewBox="0 0 405 405"
 xmlns:xlink="http://www.w3.org/1999/xlink">
 <defs>
  <style type="text/css">
   <![CDATA[
    .fil1 {fill:#FEFEFE}
    .fil6 {fill:#DCDDDF}
    .fil5 {fill:#BDBFC1}
    .fil4 {fill:#9FA1A4}
    .fil3 {fill:#848688}
    .fil0 {fill:#FAA954}
    .fil2 {fill:#3588C7}
   ]]>
  </style>
 </defs>
 <g id="Layer_x0020_1">
  <metadata id="CorelCorpID_0Corel-Layer"/>
  <path class="fil0" d="M405 202c0,112 -91,203 -203,203 -111,0 -202,-91 -202,-203 0,-111 91,-202 202,-202 112,0 203,91 203,202z"/>
  <rect class="fil1" x="169" y="68" width="158" height="136"/>
  <path class="fil2" d="M150 136c39,16 58,18 103,0 16,-6 16,-20 11,-27 -13,-19 -47,5 -69,4 -25,-1 -37,-20 -76,-18 1,13 -1,24 -6,31 -6,-36 -25,-26 -30,-1 -6,-8 -5,-19 -7,-29 -24,0 -45,14 -45,38 -1,25 -3,49 6,71 11,24 17,27 19,59 4,47 -2,81 33,83 12,1 24,1 32,-6 10,-8 10,-12 11,-27l11 -107c2,-15 3,-60 7,-71z"/>
  <path class="fil3" d="M142 34c5,34 -6,29 -6,50l19 2 0 -34c52,-2 131,0 186,0l0 128c0,42 4,41 -25,41l-127 0c-18,0 -28,2 -35,-7l-2 22c23,6 41,2 66,4 1,28 -10,4 -6,29l15 1c-16,19 -52,43 -37,54 9,3 12,-3 17,-8l40 -40c12,5 45,49 54,49 10,-1 10,-11 6,-17l-38 -37c8,-2 19,-1 15,-13 -4,-9 -8,2 -7,-18 19,-3 53,4 68,-5 19,-13 15,-34 14,-60l1 -122c10,-3 20,-6 9,-19 -30,-1 -86,1 -111,-1 -1,-9 0,-18 -10,-18 -12,-1 -9,9 -10,19l-96 0z"/>
  <path class="fil2" d="M86 16c-45,15 -25,81 21,68 16,-5 29,-22 24,-44 -5,-16 -23,-30 -45,-24z"/>
  <path class="fil4" d="M394 405c-1,-23 4,-37 -11,-52 -14,-14 -27,-12 -49,-12 -53,0 -57,12 -57,63l117 1z"/>
  <path class="fil5" d="M261 405c-2,-48 0,-64 -60,-64 -24,0 -33,-2 -48,13 -13,13 -9,30 -10,50l118 1z"/>
  <path class="fil6" d="M128 403c-1,-23 3,-34 -11,-49 -13,-15 -26,-13 -48,-13 -62,0 -57,20 -59,63l118 -1z"/>
  <path class="fil4" d="M325 270c-40,14 -21,75 22,61 38,-12 21,-75 -22,-61z"/>
  <path class="fil5" d="M192 270c-40,15 -19,74 21,61 40,-12 20,-76 -21,-61z"/>
  <path class="fil6" d="M59 270c-11,5 -14,6 -18,15 -14,28 12,57 40,46 38,-15 18,-76 -22,-61z"/>
 </g>
</svg>
